<svg width="270" height="262" viewBox="0 0 270 262" xmlns="http://www.w3.org/2000/svg"><path fill="#353436" d="M150.1 28.8c-43.5 0-78.7 35.2-78.7 78.7s35.2 78.7 78.7 78.7 78.7-35.2 78.7-78.7-35.2-78.7-78.7-78.7zm42.5 45.5c-3.6.1-6.2-2-6.3-5.4 0-1.2.3-2.3 1.1-3.5.8-1.6 1-1.8 1-2.5-.1-2.1-3.2-2.2-4.1-2.1-11.8.4-14.9 16.3-17.4 29.3l-1.2 6.8c6.8 1 11.6-.2 14.3-2 3.8-2.5-1.1-5-.5-7.8.6-2.9 3.2-4.2 5.3-4.3 2.9-.1 4.9 2.9 4.9 6-.1 5-6.8 11.9-20.1 11.6-1.6 0-3.1-.2-4.5-.3l-2.5 13.9c-2.3 10.5-5.2 24.9-16 37.4-9.2 10.9-18.5 12.6-22.7 12.8-7.8.3-13-3.9-13.2-9.5-.2-5.4 4.6-8.3 7.7-8.4 4.2-.1 7.1 2.9 7.2 6.4.1 3-1.4 3.9-2.5 4.4-.7.5-1.7 1.1-1.7 2.3 0 .5.6 1.7 2.3 1.7 3.3-.1 5.5-1.7 7-2.8 7.6-6.3 10.5-17.4 14.4-37.5l.8-4.9c1.3-6.6 2.8-13.9 5-21.1-5.4-4-8.6-9.1-15.8-11-4.9-1.3-8-.2-10.1 2.5-2.5 3.2-1.7 7.3.8 9.7l4 4.4c4.9 5.7 7.6 10.1 6.6 16.1-1.6 9.5-12.9 16.8-26.3 12.7-11.4-3.5-13.5-11.6-12.2-16.1 1.2-3.9 4.3-4.7 7.4-3.7 3.3 1 4.5 5 3.6 8-.1.3-.3.9-.6 1.6-.4.8-1.1 1.6-1.4 2.6-.7 2.4 2.5 4.1 4.8 4.8 5.1 1.6 10.1-1.1 11.4-5.2 1.2-3.8-1.2-6.4-2.2-7.5l-4.8-5.2c-2.2-2.5-7.1-9.3-4.7-17.1.9-3 2.8-6.1 5.6-8.2 5.9-4.4 12.3-5.1 18.4-3.4 7.9 2.3 11.7 7.5 16.6 11.6 2.8-8.1 6.6-16 12.3-22.7 5.2-6.1 12.2-10.5 20.2-10.8 8-.3 14 3.4 14.2 9.1.1 2.4-1.3 7.1-6.1 7.3z"/><path fill="#FFF" d="M192.6 74.3c-3.6.1-6.2-2-6.3-5.4 0-1.2.3-2.3 1.1-3.5.8-1.6 1-1.8 1-2.5-.1-2.1-3.2-2.2-4.1-2.1-11.8.4-14.9 16.3-17.4 29.3l-1.2 6.8c6.8 1 11.6-.2 14.3-2 3.8-2.5-1.1-5-.5-7.8.6-2.9 3.2-4.2 5.3-4.3 2.9-.1 4.9 2.9 4.9 6-.1 5-6.8 11.9-20.1 11.6-1.6 0-3.1-.2-4.5-.3l-2.5 13.9c-2.3 10.5-5.2 24.9-16 37.4-9.2 10.9-18.5 12.6-22.7 12.8-7.8.3-13-3.9-13.2-9.5-.2-5.4 4.6-8.3 7.7-8.4 4.2-.1 7.1 2.9 7.2 6.4.1 3-1.4 3.9-2.5 4.4-.7.5-1.7 1.1-1.7 2.3 0 .5.6 1.7 2.3 1.7 3.3-.1 5.5-1.7 7-2.8 7.6-6.3 10.5-17.4 14.4-37.5l.8-4.9c1.3-6.6 2.8-13.9 5-21.1-5.4-4-8.6-9.1-15.8-11-4.9-1.3-8-.2-10.1 2.5-2.5 3.2-1.7 7.3.8 9.7l4 4.4c4.9 5.7 7.6 10.1 6.6 16.1-1.6 9.5-12.9 16.8-26.3 12.7-11.4-3.5-13.5-11.6-12.2-16.1 1.2-3.9 4.3-4.7 7.4-3.7 3.3 1 4.5 5 3.6 8-.1.3-.3.9-.6 1.6-.4.8-1.1 1.6-1.4 2.6-.7 2.4 2.5 4.1 4.8 4.8 5.1 1.6 10.1-1.1 11.4-5.2 1.2-3.8-1.2-6.4-2.2-7.5l-4.8-5.2c-2.2-2.5-7.1-9.3-4.7-17.1.9-3 2.8-6.1 5.6-8.2 5.9-4.4 12.3-5.1 18.4-3.4 7.9 2.3 11.7 7.5 16.6 11.6 2.8-8.1 6.6-16 12.3-22.7 5.2-6.1 12.2-10.5 20.2-10.8 8-.3 14 3.4 14.2 9.1.1 2.4-1.3 7.1-6.1 7.3z"/></svg>